<svg xmlns="http://www.w3.org/2000/svg" viewBox="0 0 32 32"><rect x="8" y="4" width="2" height="1" fill="currentColor"/><rect x="24" y="4" width="1" height="1" fill="currentColor"/><rect x="8" y="5" width="3" height="1" fill="currentColor"/><rect x="23" y="5" width="2" height="1" fill="currentColor"/><rect x="8" y="6" width="4" height="1" fill="currentColor"/><rect x="22" y="6" width="3" height="1" fill="currentColor"/><rect x="8" y="7" width="5" height="1" fill="currentColor"/><rect x="21" y="7" width="4" height="1" fill="currentColor"/><rect x="5" y="8" width="1" height="1" fill="currentColor"/><rect x="8" y="8" width="6" height="1" fill="currentColor"/><rect x="20" y="8" width="5" height="1" fill="currentColor"/><rect x="27" y="8" width="2" height="1" fill="currentColor"/><rect x="5" y="9" width="2" height="1" fill="currentColor"/><rect x="8" y="9" width="7" height="1" fill="currentColor"/><rect x="19" y="9" width="6" height="1" fill="currentColor"/><rect x="26" y="9" width="3" height="1" fill="currentColor"/><rect x="5" y="10" width="11" height="1" fill="currentColor"/><rect x="18" y="10" width="11" height="1" fill="currentColor"/><rect x="5" y="11" width="3" height="1" fill="currentColor"/><rect x="9" y="11" width="20" height="1" fill="currentColor"/><rect x="5" y="12" width="3" height="1" fill="currentColor"/><rect x="10" y="12" width="14" height="1" fill="currentColor"/><rect x="25" y="12" width="4" height="1" fill="currentColor"/><rect x="5" y="13" width="3" height="1" fill="currentColor"/><rect x="11" y="13" width="12" height="1" fill="currentColor"/><rect x="25" y="13" width="4" height="1" fill="currentColor"/><rect x="5" y="14" width="3" height="1" fill="currentColor"/><rect x="12" y="14" width="9" height="1" fill="currentColor"/><rect x="25" y="14" width="4" height="1" fill="currentColor"/><rect x="5" y="15" width="3" height="1" fill="currentColor"/><rect x="13" y="15" width="7" height="1" fill="currentColor"/><rect x="25" y="15" width="4" height="1" fill="currentColor"/><rect x="5" y="16" width="3" height="1" fill="currentColor"/><rect x="14" y="16" width="5" height="1" fill="currentColor"/><rect x="25" y="16" width="4" height="1" fill="currentColor"/><rect x="5" y="17" width="3" height="1" fill="currentColor"/><rect x="10" y="17" width="1" height="1" fill="currentColor"/><rect x="15" y="17" width="3" height="1" fill="currentColor"/><rect x="25" y="17" width="4" height="1" fill="currentColor"/><rect x="5" y="18" width="3" height="1" fill="currentColor"/><rect x="10" y="18" width="2" height="1" fill="currentColor"/><rect x="16" y="18" width="1" height="1" fill="currentColor"/><rect x="22" y="18" width="1" height="1" fill="currentColor"/><rect x="25" y="18" width="4" height="1" fill="currentColor"/><rect x="5" y="19" width="3" height="1" fill="currentColor"/><rect x="10" y="19" width="3" height="1" fill="currentColor"/><rect x="21" y="19" width="2" height="1" fill="currentColor"/><rect x="25" y="19" width="4" height="1" fill="currentColor"/><rect x="5" y="20" width="3" height="1" fill="currentColor"/><rect x="10" y="20" width="4" height="1" fill="currentColor"/><rect x="19" y="20" width="4" height="1" fill="currentColor"/><rect x="25" y="20" width="4" height="1" fill="currentColor"/><rect x="5" y="21" width="3" height="1" fill="currentColor"/><rect x="10" y="21" width="5" height="1" fill="currentColor"/><rect x="18" y="21" width="5" height="1" fill="currentColor"/><rect x="25" y="21" width="4" height="1" fill="currentColor"/><rect x="5" y="22" width="3" height="1" fill="currentColor"/><rect x="9" y="22" width="5" height="1" fill="currentColor"/><rect x="19" y="22" width="10" height="1" fill="currentColor"/><rect x="5" y="23" width="8" height="1" fill="currentColor"/><rect x="20" y="23" width="9" height="1" fill="currentColor"/><rect x="5" y="24" width="7" height="1" fill="currentColor"/><rect x="21" y="24" width="8" height="1" fill="currentColor"/><rect x="5" y="25" width="6" height="1" fill="currentColor"/><rect x="22" y="25" width="7" height="1" fill="currentColor"/><rect x="5" y="26" width="5" height="1" fill="currentColor"/><rect x="24" y="26" width="5" height="1" fill="currentColor"/><rect x="5" y="27" width="4" height="1" fill="currentColor"/><rect x="25" y="27" width="4" height="1" fill="currentColor"/><rect x="5" y="28" width="3" height="1" fill="currentColor"/><rect x="26" y="28" width="3" height="1" fill="currentColor"/><rect x="5" y="29" width="2" height="1" fill="currentColor"/><rect x="27" y="29" width="2" height="1" fill="currentColor"/><rect x="5" y="30" width="1" height="1" fill="currentColor"/><rect x="28" y="30" width="1" height="1" fill="currentColor"/></svg>